<svg xmlns="http://www.w3.org/2000/svg" width="1190" height="1684" viewBox="0 0 1190 1684" version="1.1">
	<path d="M 362.720 677.816 C 362.546 678.192, 362.259 752.235, 362.082 842.355 L 361.761 1006.211 363.967 1005.511 C 365.180 1005.125, 370.548 1002.647, 375.895 1000.004 C 404.798 985.714, 452.205 965.002, 491.835 949.350 C 577.399 915.555, 676.427 883.645, 812.750 845.941 C 821.138 843.621, 828 841.222, 828 840.609 C 828 839.459, 797.650 818.915, 776.500 805.748 C 643.969 723.243, 518.967 682.288, 388 678.461 C 377.825 678.164, 368.046 677.743, 366.268 677.526 C 364.491 677.309, 362.894 677.440, 362.720 677.816" stroke="none" fill="#000000" fill-rule="evenodd"/>
</svg>