<svg xmlns="http://www.w3.org/2000/svg" width="1190" height="1684" viewBox="0 0 1190 1684" version="1.1">
	<path d="M 362.517 683.340 C 362.324 683.978, 361.918 757.063, 361.614 845.750 C 361.158 978.789, 361.292 1007, 362.379 1007 C 363.104 1007, 369.728 1004.130, 377.099 1000.623 C 391.942 993.559, 397.739 990.881, 419.500 981.029 C 422.250 979.784, 428.775 976.747, 434 974.280 C 439.225 971.813, 446.336 968.711, 449.802 967.386 C 453.268 966.062, 457.093 964.336, 458.302 963.550 C 459.511 962.765, 466.350 959.799, 473.500 956.958 C 513.769 940.960, 530.895 934.318, 543 930.005 C 550.425 927.359, 561.675 923.316, 568 921.019 C 574.325 918.723, 580.625 916.457, 582 915.985 C 583.375 915.512, 591.700 912.606, 600.500 909.526 C 609.300 906.447, 620.245 902.811, 624.821 901.447 C 629.398 900.083, 635.698 898.034, 638.821 896.894 C 641.945 895.753, 646.300 894.387, 648.500 893.858 C 653.782 892.587, 670.396 887.448, 680.914 883.833 C 707.030 874.855, 820.360 842.012, 825.250 842.004 C 829.647 841.997, 828.506 839.464, 823.049 837.116 C 820.325 835.945, 812.338 832.225, 805.299 828.850 C 784.997 819.117, 737.534 798.194, 732.500 796.758 C 731.400 796.445, 722.175 792.968, 712 789.032 C 701.825 785.097, 689.225 780.369, 684 778.526 C 675.855 775.653, 666.869 772.399, 651 766.575 C 642.054 763.292, 598.710 747.872, 587.500 743.985 C 570.670 738.149, 538.660 727.968, 518.500 722.037 C 506.950 718.640, 493.225 714.571, 488 712.996 C 463.063 705.478, 450.261 702.151, 420 695.327 C 406.525 692.289, 393.025 689.220, 390 688.509 C 386.975 687.797, 381.350 686.496, 377.500 685.616 C 373.650 684.737, 368.783 683.604, 366.684 683.099 C 363.958 682.443, 362.768 682.512, 362.517 683.340" stroke="none" fill="#000000" fill-rule="evenodd"/>
</svg>